<svg width="80" height="80" viewBox="0 0 80 80" fill="none" xmlns="http://www.w3.org/2000/svg">
<path fill-rule="evenodd" clip-rule="evenodd" d="M36.9004 58.8332H34.4004C30.9004 58.8332 28.0671 55.9999 28.0671 52.4999V49.9999H30.5671C34.0671 49.9999 36.9004 52.8332 36.9004 56.3332V58.8332ZM42.0671 51.1666L40.4004 52.8332L38.7337 51.1666C36.2337 48.6666 36.2337 44.6666 38.7337 42.1666L40.4004 40.4999L42.0671 42.1666C44.5671 44.6666 44.5671 48.6666 42.0671 51.1666ZM52.7337 52.3332C52.7337 55.8332 49.9004 58.6666 46.4004 58.6666H43.9004V56.1666C43.9004 52.6666 46.7337 49.8332 50.2337 49.8332H52.7337V52.3332Z" fill="#E6F2D6"/>
<path fill-rule="evenodd" clip-rule="evenodd" d="M38.7337 7.1665C29.4004 8.33317 23.0671 16.3332 20.7337 19.8332L20.4004 20.3332H57.2337L56.9004 19.8332C54.5671 16.4998 48.2337 8.33317 38.7337 7.1665Z" fill="#E6F2D6"/>
<path fill-rule="evenodd" clip-rule="evenodd" d="M50.2333 47.8334H53.7333C54.4 47.8334 54.7333 48.3334 54.5667 49.0001V52.5001C54.5667 57.1667 50.7333 61 46.0667 61H42.5667C42.0667 61 41.5667 60.6667 41.5667 60V56.5001V55.3334L41.7333 54.3334L40.9 55.1667C40.5667 55.5001 39.7333 55.5001 39.4 55.1667L38.5667 54.3334L38.7333 55.3334V56.3334V59.8334C38.7333 60.3334 38.4 60.8334 37.7333 60.8334H34.2333C29.5667 60.8334 25.7333 57 25.7333 52.3334V48.8334C25.7333 48.3334 26.0667 47.8334 26.7333 47.8334H30.2333C31.5667 47.8334 32.9 48.1667 34.0667 48.8334L34.7333 49.1667L34.5667 48.5001C34.0667 45.6667 34.9 42.6667 36.9 40.6667L39.4 38.1667C39.7333 37.6667 40.5667 37.8334 40.9 38.1667L43.4 40.6667C45.5667 42.6667 46.4 45.6667 45.7333 48.5001L45.5667 49.1667L46.2333 48.8334C47.5667 48.1667 48.9 47.8334 50.2333 47.8334ZM36.9 58.8334H34.4C30.9 58.8334 28.0667 56.0001 28.0667 52.5001V50.0001H30.5667C34.0667 50.0001 36.9 52.8334 36.9 56.3334V58.8334ZM42.0667 51.1667L40.4 52.8334L38.7333 51.1667C36.2333 48.6667 36.2333 44.6667 38.7333 42.1667L40.4 40.5001L42.0667 42.1667C44.5667 44.6667 44.5667 48.6667 42.0667 51.1667ZM52.7333 52.3334C52.7333 55.8334 49.9 58.6667 46.4 58.6667H43.9V56.1667C43.9 52.6667 46.7333 49.8334 50.2333 49.8334H52.7333V52.3334Z" fill="#7ECA1D"/>
<path fill-rule="evenodd" clip-rule="evenodd" d="M69.2333 63.5L73.2333 67.5C74.2333 68.5 74.5667 69.8333 73.7333 71C73.2333 72.1667 71.9 72.8333 70.5667 72.6667L63.0667 71.6667L61.4 72C46.4 75 30.9 75 15.9 71.6667H15.7333L8.56667 72.6667C7.23333 72.8333 6.06667 72.1667 5.4 71C4.73333 69.8333 4.9 68.5 5.9 67.5L9.9 63.5V63.3333V63L12.9 31.6667H12.5667C10.5667 31.5 9.06667 30.1667 9.06667 28.6667V28.3333C9.06667 24.6667 12.9 21.1667 17.7333 20.5H17.9V20.3333C19.9 17.1667 26.9 6.5 38.7333 5H38.9H39.0667C50.5303 6.41332 57.555 16.8522 59.5833 19.8663C59.7077 20.0512 59.8133 20.2081 59.9 20.3333V20.5H60.0667C64.7333 21.3333 68.4 24.6667 68.4 28.3333V28.6667C68.4 30 67.4 31.1667 65.7333 31.5H65.4L69.2333 63V63.3333V63.5ZM38.7333 7.16667C29.4 8.33333 23.0667 16.3333 20.7333 19.8333L20.4 20.3333H57.2333L56.9 19.8333C54.5667 16.5 48.2333 8.33333 38.7333 7.16667ZM11.2333 28.8333C11.4 29 11.9 29.5 12.7333 29.5L23.0667 31C26.4 31.5 32.0667 31.8333 38.2333 31.8333H38.5667C44.5667 31.8333 50.0667 31.5 53.4 31L65.2333 29.3333C65.2918 29.2749 65.3913 29.2164 65.503 29.1507C65.7098 29.0292 65.9585 28.8831 66.0667 28.6667V28.3333C66.0667 25.6667 62.5667 22.5 57.9 22.5H19.4C14.9 22.5 11.2333 25.6667 11.2333 28.3333V28.6667V28.8333ZM41.5667 11.3334C40.9 11.3334 40.2334 11.8334 40.2334 12.6667C40.2334 13.3334 40.7334 14.0001 41.5667 14.0001C42.2334 14.0001 42.9 13.5001 42.9 12.6667C42.9 11.8334 42.4 11.3334 41.5667 11.3334ZM46.4 14.4999C45.7333 14.4999 45.0666 14.9999 45.0666 15.8333C45.0666 16.4999 45.5666 17.1666 46.4 17.1666C47.2333 17.1666 47.7333 16.6666 47.7333 15.8333C47.5666 14.9999 47.0666 14.4999 46.4 14.4999ZM35.5667 15.8333C35.5667 14.9999 36.2334 14.4999 36.9 14.4999C37.5667 14.4999 38.0667 14.9999 38.2334 15.8333C38.2334 16.6666 37.7334 17.1666 36.9 17.1666C36.0667 17.1666 35.5667 16.4999 35.5667 15.8333ZM72.0667 70.1667C71.9 70.5 71.5667 70.6667 71.0667 70.6667L63.0667 69.5H62.9H62.7333L61.0667 70C53.9 71.5 46.5667 72.3333 39.4 72.3333C31.7333 72.3333 24.0667 71.5 16.4 69.8333C16.2333 69.8333 16.2333 69.8333 16.0667 69.6667H15.9L8.06667 70.8333C7.56667 70.8333 7.23333 70.6667 7.06667 70.3333C6.9 70 6.9 69.5 7.23333 69.1667L11.9 64.5V63.8333V63.3333L14.9 32L22.7333 33.1667C22.9833 33.1667 23.2333 33.2083 23.4833 33.25C23.7333 33.2917 23.9833 33.3333 24.2333 33.3333C24.4833 33.3333 24.775 33.375 25.0667 33.4167C25.3583 33.4583 25.65 33.5 25.9 33.5C29.4 33.8333 33.9 34 38.5667 34C42.8667 34.1111 53.82 33.9 63.2333 32.1667V32.5L67.0667 63.6667V64V64.6667L71.7333 69.3333C72.0667 69.3333 72.2333 69.6667 72.0667 70.1667Z" fill="#7ECA1D"/>
</svg>
