<svg width="80" height="80" viewBox="0 0 80 80" fill="none" xmlns="http://www.w3.org/2000/svg">
<path d="M75.9998 36.4H73.4018L69.6758 17.9115C69.3748 16.2525 68.5007 14.7518 67.2062 13.6714C65.9117 12.591 64.2789 11.9994 62.5928 12H17.4068C15.7207 11.9994 14.0879 12.591 12.7934 13.6714C11.4989 14.7518 10.6248 16.2525 10.3238 17.9115L6.5978 36.4H3.9998C3.68154 36.4 3.37632 36.5264 3.15128 36.7515C2.92623 36.9765 2.7998 37.2817 2.7998 37.6V42.4C2.7998 42.7183 2.92623 43.0235 3.15128 43.2485C3.37632 43.4736 3.68154 43.6 3.9998 43.6H6.5978L10.3238 62.0885C10.6248 63.7475 11.4989 65.2482 12.7934 66.3286C14.0879 67.409 15.7207 68.0006 17.4068 68H62.5928C64.2789 68.0006 65.9117 67.409 67.2062 66.3286C68.5007 65.2482 69.3748 63.7475 69.6758 62.0885L73.4018 43.6H75.9998C76.3181 43.6 76.6233 43.4736 76.8483 43.2485C77.0734 43.0235 77.1998 42.7183 77.1998 42.4V37.6C77.1998 37.2817 77.0734 36.9765 76.8483 36.7515C76.6233 36.5264 76.3181 36.4 75.9998 36.4ZM12.6848 18.342C12.8853 17.2358 13.4679 16.2352 14.331 15.5147C15.194 14.7942 16.2826 14.3997 17.4068 14.4H62.5928C63.717 14.3997 64.8056 14.7942 65.6687 15.5147C66.5317 16.2352 67.1143 17.2358 67.3148 18.342L70.9613 36.4H9.0383L12.6848 18.342ZM67.3148 61.658C67.1143 62.7642 66.5317 63.7648 65.6687 64.4853C64.8056 65.2058 63.717 65.6003 62.5928 65.6H17.4068C16.2826 65.6003 15.194 65.2058 14.331 64.4853C13.4679 63.7648 12.8853 62.7642 12.6848 61.658L9.0383 43.6H30.8588L32.9258 47.737C33.0257 47.9362 33.1791 48.1038 33.3688 48.2209C33.5584 48.3379 33.7769 48.4 33.9998 48.4H45.9998C46.2227 48.4 46.4412 48.3379 46.6309 48.2209C46.8205 48.1038 46.9739 47.9362 47.0738 47.737L49.1408 43.6H70.9613L67.3148 61.658ZM33.5408 43.6H46.4588L45.2588 46H34.7408L33.5408 43.6ZM74.7998 41.2H5.1998V38.8H74.7998V41.2Z" fill="#7ECA1D"/>
<path fill-rule="evenodd" clip-rule="evenodd" d="M65.6684 64.4854C66.5315 63.7649 67.1141 62.7643 67.3146 61.6581L70.9611 43.6001H49.1406L47.0736 47.7371C46.9737 47.9363 46.8203 48.1039 46.6306 48.221C46.441 48.338 46.2225 48.4001 45.9996 48.4001H33.9996C33.7767 48.4001 33.5582 48.338 33.3685 48.221C33.1789 48.1039 33.0255 47.9363 32.9256 47.7371L30.8586 43.6001H9.03809L12.6846 61.6581C12.8851 62.7643 13.4677 63.7649 14.3307 64.4854C15.1938 65.2059 16.2824 65.6004 17.4066 65.6001H62.5926C63.7168 65.6004 64.8054 65.2059 65.6684 64.4854ZM26.7998 58.1998H53.1998V55.7998H26.7998V58.1998Z" fill="#E6F2D6"/>
<path d="M25.5994 53.3999C25.2812 53.3999 24.9759 53.5263 24.7509 53.7514C24.5258 53.9764 24.3994 54.2816 24.3994 54.5999V59.3999C24.3994 59.7182 24.5258 60.0234 24.7509 60.2484C24.9759 60.4735 25.2812 60.5999 25.5994 60.5999H54.3994C54.7177 60.5999 55.0229 60.4735 55.2479 60.2484C55.473 60.0234 55.5994 59.7182 55.5994 59.3999V54.5999C55.5994 54.2816 55.473 53.9764 55.2479 53.7514C55.0229 53.5263 54.7177 53.3999 54.3994 53.3999H25.5994ZM53.1994 58.1999H26.7994V55.7999H53.1994V58.1999Z" fill="#7ECA1D"/>
<path d="M47.8 22.8999H32.2C31.8817 22.8999 31.5765 23.0263 31.3515 23.2514C31.1264 23.4764 31 23.7816 31 24.0999C31 24.4182 31.1264 24.7234 31.3515 24.9484C31.5765 25.1735 31.8817 25.2999 32.2 25.2999H47.8C48.1183 25.2999 48.4235 25.1735 48.6485 24.9484C48.8736 24.7234 49 24.4182 49 24.0999C49 23.7816 48.8736 23.4764 48.6485 23.2514C48.4235 23.0263 48.1183 22.8999 47.8 22.8999Z" fill="#7ECA1D"/>
</svg>
