<svg width="80" height="80" viewBox="0 0 80 80" fill="none" xmlns="http://www.w3.org/2000/svg">
<path d="M18.333 73.3332V61.6665H61.6663V73.3332H18.333Z" fill="#EDFDD9"/>
<path d="M75 30.7945C75 19.9589 66.1781 11.137 55.3425 11.137C55.1123 11.137 54.9014 11.1562 54.6712 11.1562C54.5753 11.1562 54.4986 11.1753 54.4027 11.1753H54.2685L54.1726 11.0795C50.4329 7.16712 45.389 5 40 5C34.611 5 29.5671 7.16712 25.8082 11.0795L25.7123 11.1753H25.5781C25.4822 11.1753 25.4055 11.1753 25.3096 11.1562C25.0986 11.137 24.8685 11.137 24.6384 11.137C13.8219 11.137 5 19.9589 5 30.7945C5 38.7342 9.75616 45.8685 17.1014 48.937L17.274 49.0137V73.7534C17.274 74.4438 17.8301 75 18.5205 75H61.4795C61.8055 75 62.1315 74.8658 62.3616 74.6356C62.5918 74.4055 62.726 74.0795 62.726 73.7534V49.0137L62.8986 48.937C70.2438 45.8685 75 38.7342 75 30.7945ZM19.7671 72.5069V62.751H60.2329V72.5069H19.7671ZM55.3425 47.9589C54.6521 47.9589 54.0959 48.5151 54.0959 49.2055C54.0959 49.8959 54.6521 50.4521 55.3425 50.4521C56.8192 50.4521 58.3343 50.2603 59.8685 49.8959L60.2137 49.8192V60.2579H19.7671V49.8192L20.1123 49.8959C21.6466 50.2603 23.1808 50.4521 24.6575 50.4521C25.3479 50.4521 25.9041 49.8959 25.9041 49.2055C25.9041 48.5151 25.3479 47.9589 24.6575 47.9589C15.1836 47.9589 7.49315 40.2685 7.49315 30.7945C7.49315 26.4795 9.10411 22.3562 12.0384 19.1726C14.9534 16.0082 18.9041 14.0712 23.1425 13.7069L23.7178 13.6493L23.411 14.1479C21.3973 17.3123 20.3425 20.937 20.3425 24.6575C20.3425 35.4932 29.1644 44.3151 40 44.3151C40.6904 44.3151 41.2466 43.7589 41.2466 43.0685C41.2466 42.3781 40.6904 41.8219 40 41.8219C30.526 41.8219 22.8356 34.1315 22.8356 24.6575C22.8356 15.1836 30.526 7.49315 40 7.49315C49.474 7.49315 57.1644 15.1836 57.1644 24.6575C57.1644 25.3479 57.7206 25.9041 58.411 25.9041C59.1014 25.9041 59.6575 25.3479 59.6575 24.6575C59.6575 20.937 58.6027 17.3123 56.589 14.1479L56.2822 13.6493L56.8575 13.7069C61.1151 14.0712 65.0658 16.0274 67.9616 19.1726C70.8959 22.3562 72.5069 26.4795 72.5069 30.7945C72.5069 40.2685 64.8164 47.9589 55.3425 47.9589Z" fill="#7ECA1D"/>
</svg>
