<svg width="80" height="80" viewBox="0 0 80 80" fill="none" xmlns="http://www.w3.org/2000/svg">
<path fill-rule="evenodd" clip-rule="evenodd" d="M39.9311 2.10547C60.8219 2.10547 77.7567 19.0402 77.7567 39.9311C77.7567 60.8219 60.8219 77.7567 39.9311 77.7567C19.0402 77.7567 2.10547 60.8219 2.10547 39.9311C2.10547 19.0402 19.0402 2.10547 39.9311 2.10547ZM51.3474 33.9271C51.9581 31.5579 52.2792 28.9391 52.1189 26.3738C55.8287 29.711 58.1613 34.5496 58.1613 39.9311C58.1613 41.3864 57.9907 42.8019 57.6684 44.1587C56.0684 44.7289 54.5511 45.4874 53.2403 46.311C49.5603 48.6258 46.0107 52.3604 45.5465 56.8747C45.5325 57.0131 45.5214 57.1511 45.5134 57.2887C44.1005 57.7429 42.6124 58.0293 41.0725 58.1246C41.5042 56.7634 41.7547 55.2841 42.0098 53.7767C42.5717 50.4578 43.1566 47.0029 45.75 44.3725C48.4956 41.5844 50.3766 37.689 51.3474 33.9271ZM45.6633 59.5926C43.8876 60.1097 42.0121 60.3927 40.0724 60.4063C39.8131 60.839 39.5152 61.2489 39.1697 61.6319C37.0005 64.0377 33.7847 64.332 30.7478 63.9801C26.731 63.5159 23.0814 61.9959 20.2296 59.0835C14.2651 52.9976 13.7948 43.0194 14.8021 35.0557C16.6982 20.0686 23.3332 13.1818 38.8481 13.3396H38.8451C42.874 13.3821 46.6238 14.7079 49.1722 17.948C50.3759 19.4777 51.1673 21.248 51.6313 23.125C52.2749 23.5741 52.8916 24.0591 53.4783 24.5773C54.0274 22.717 55.7486 21.361 57.7852 21.361C60.2669 21.361 62.2753 23.3724 62.2753 25.851C62.2753 25.8927 62.2747 25.9341 62.2736 25.9755C62.7484 25.8683 63.2425 25.8117 63.7497 25.8117C67.4358 25.8117 70.4241 28.8 70.4241 32.4861C70.4241 36.1721 67.4358 39.1604 63.7497 39.1604C62.5023 39.1604 61.3349 38.8182 60.3361 38.2226C60.3826 38.7859 60.4063 39.3557 60.4063 39.9311C60.4063 41.1353 60.3023 42.3153 60.1029 43.4624C61.815 43.0971 63.5497 42.9997 65.1693 43.3075L66.8834 43.6321L66.9926 45.3735L66.9895 45.3705C67.2232 49.1233 65.6547 53.3069 63.6888 56.4469C60.3546 61.7713 54.3203 66.4494 47.831 63.5704L47.1514 63.27L46.7874 62.6238C46.2447 61.6621 45.8643 60.6457 45.6633 59.5926ZM59.5173 45.9173C61.3862 45.3872 63.2077 45.2174 64.7476 45.51C65.2057 52.8549 57.0538 65.2086 48.7411 61.5165C48.2371 60.6232 47.9363 59.7251 47.8101 58.8348C53.3984 56.5027 57.7318 51.7658 59.5173 45.9173ZM47.8976 56.331C51.8794 54.3932 55.0501 51.0487 56.7628 46.9443C52.5654 48.8833 48.7116 52.404 47.8976 56.331ZM39.9311 4.35049C59.5811 4.35049 75.5117 20.2811 75.5117 39.9311C75.5117 59.5811 59.5811 75.5117 39.9311 75.5117C20.2811 75.5117 4.35049 59.5811 4.35049 39.9311C4.35049 20.2811 20.2811 4.35049 39.9311 4.35049ZM44.1482 42.7949C51.6387 35.1952 53.6895 15.7363 38.8208 15.5846C23.949 15.4329 18.7066 22.0558 17.0259 35.3378C15.3482 48.6199 18.74 60.3364 31.0027 61.7502C38.2014 62.5802 38.897 58.5222 39.7593 53.4918C40.3659 49.9531 41.055 45.9332 44.1482 42.7949ZM24.6317 38.8964L33.2963 47.561C33.7332 47.9979 33.7332 48.7108 33.2963 49.1477C32.8594 49.5845 32.1465 49.5845 31.7096 49.1477L23.045 40.4831C22.6082 40.0462 22.6082 39.3333 23.045 38.8964C23.4819 38.4595 24.1949 38.4595 24.6317 38.8964ZM35.6839 22.0223L44.3485 30.6869C44.7854 31.1238 44.7854 31.8367 44.3485 32.2736C43.9116 32.7105 43.1987 32.7105 42.7618 32.2736L34.0972 23.609C33.6604 23.1721 33.6604 22.4592 34.0972 22.0223C34.5341 21.5855 35.247 21.5855 35.6839 22.0223ZM26.3671 25.7266L35.0316 34.3912C35.4685 34.8281 35.4685 35.541 35.0316 35.9779C34.5948 36.4147 33.8818 36.4147 33.445 35.9779L24.7804 27.3133C24.3435 26.8764 24.3435 26.1635 24.7804 25.7266C25.2173 25.2897 25.9302 25.2897 26.3671 25.7266ZM57.7852 23.606C59.026 23.606 60.0302 24.6102 60.0302 25.851C60.0302 27.0919 59.026 28.0961 57.7852 28.0961C56.5444 28.0961 55.5402 27.0919 55.5402 25.851C55.5402 24.6102 56.5444 23.606 57.7852 23.606ZM68.1791 32.4861C68.1791 30.0408 66.195 28.0567 63.7497 28.0567C61.3044 28.0567 59.3203 30.0408 59.3203 32.4861C59.3203 34.9313 61.3044 36.9154 63.7497 36.9154C66.195 36.9154 68.1791 34.9313 68.1791 32.4861Z" fill="#7ECA1D"/>
<path fill-rule="evenodd" clip-rule="evenodd" d="M60.0296 25.8544C60.0296 27.0943 59.0245 28.0994 57.7846 28.0994C56.5447 28.0994 55.5396 27.0943 55.5396 25.8544C55.5396 24.6145 56.5447 23.6094 57.7846 23.6094C59.0245 23.6094 60.0296 24.6145 60.0296 25.8544ZM63.7494 36.9156C66.1957 36.9156 68.1788 34.9325 68.1788 32.4862C68.1788 30.0399 66.1957 28.0568 63.7494 28.0568C61.3032 28.0568 59.3201 30.0399 59.3201 32.4862C59.3201 34.9325 61.3032 36.9156 63.7494 36.9156ZM64.7506 45.5077C57.4877 44.1273 43.9599 53.0345 48.7442 61.5141C57.0569 65.2062 65.2088 52.8525 64.7506 45.5077Z" fill="#E6F2D6"/>
</svg>
