<svg width="80" height="80" viewBox="0 0 80 80" fill="none" xmlns="http://www.w3.org/2000/svg">
<path fill-rule="evenodd" clip-rule="evenodd" d="M42.7823 4.8252C62.1746 4.8252 77.8946 20.5452 77.8946 39.9375C77.8946 59.3299 62.1746 75.0499 42.7823 75.0499C23.3899 75.0499 7.66992 59.3299 7.66992 39.9375C7.66992 20.5452 23.3899 4.8252 42.7823 4.8252ZM53.3795 34.3641C53.9463 32.1648 54.2445 29.7339 54.0956 27.3526C57.5394 30.4504 59.7048 34.9419 59.7048 39.9375C59.7048 41.2886 59.5464 42.6026 59.2472 43.8622C57.762 44.3915 56.3536 45.0955 55.1368 45.8601C51.7208 48.0088 48.4258 51.4755 47.9949 55.666C47.9819 55.7944 47.9716 55.9224 47.9642 56.0501C46.6525 56.4717 45.2711 56.7376 43.8416 56.8261C44.2424 55.5624 44.4748 54.1892 44.7117 52.7899L44.7117 52.7898C45.2333 49.7091 45.7762 46.502 48.1836 44.0603C50.7323 41.4722 52.4783 37.8562 53.3795 34.3641ZM48.1033 58.1888C46.4548 58.6687 44.7138 58.9315 42.9132 58.944C42.6725 59.3456 42.396 59.7262 42.0753 60.0816C40.0617 62.3148 37.0765 62.588 34.2575 62.2613C30.5289 61.8305 27.141 60.4195 24.4938 57.716C18.9571 52.0667 18.5206 42.8042 19.4556 35.4117C21.2157 21.4997 27.3747 15.1069 41.7768 15.2534H41.774C45.5139 15.2928 48.9947 16.5235 51.3603 19.5312C52.4777 20.9512 53.2123 22.5945 53.643 24.3368C54.2405 24.7537 54.813 25.2041 55.3577 25.6851C55.8675 23.9583 57.4652 22.6996 59.3556 22.6996C61.6593 22.6996 63.5236 24.5668 63.5236 26.8676C63.5236 26.8879 63.5235 26.9082 63.5232 26.9285C63.5229 26.9467 63.5226 26.9648 63.5221 26.9829C63.9629 26.8834 64.4215 26.8309 64.8923 26.8309C68.314 26.8309 71.088 29.6049 71.088 33.0265C71.088 36.4482 68.314 39.2222 64.8923 39.2222C63.7344 39.2222 62.6507 38.9045 61.7236 38.3516C61.7668 38.8745 61.7888 39.4034 61.7888 39.9375C61.7888 41.0555 61.6922 42.1509 61.5071 43.2159C63.0964 42.8767 64.7067 42.7863 66.2101 43.072L67.8012 43.3734L67.9026 44.9899L67.8998 44.987C68.1167 48.4707 66.6607 52.3542 64.8358 55.269C61.7408 60.2114 56.1394 64.554 50.1155 61.8814L49.4847 61.6026L49.1468 61.0027C48.6429 60.11 48.2898 59.1664 48.1033 58.1888ZM60.9634 45.4946C62.6983 45.0025 64.3892 44.8449 65.8186 45.1166C66.2439 51.9346 58.6768 63.4021 50.9604 59.9748C50.4925 59.1455 50.2133 58.3118 50.096 57.4853C55.2834 55.3205 59.306 50.9235 60.9634 45.4946ZM50.1774 55.161C53.8734 53.3623 56.8166 50.2579 58.4065 46.4481C54.5103 48.2479 50.9332 51.5159 50.1774 55.161ZM42.7823 6.90918C61.0228 6.90918 75.8106 21.697 75.8106 39.9375C75.8106 58.178 61.0228 72.9659 42.7823 72.9659C24.5418 72.9659 9.75391 58.178 9.75391 39.9375C9.75391 21.697 24.5418 6.90918 42.7823 6.90918ZM46.6967 42.5958C53.6498 35.5413 55.5536 17.4782 41.7514 17.3374C27.9464 17.1966 23.0801 23.3443 21.5199 35.6736C19.9625 48.0029 23.111 58.8791 34.4941 60.1914C41.1765 60.9618 41.8222 57.195 42.6226 52.5254C43.1857 49.2406 43.8253 45.509 46.6967 42.5958ZM28.5803 38.9768L36.6234 47.0199C37.0289 47.4254 37.0289 48.0872 36.6234 48.4927C36.2178 48.8983 35.556 48.8983 35.1505 48.4927L27.1074 40.4497C26.7019 40.0442 26.7019 39.3824 27.1074 38.9768C27.513 38.5713 28.1748 38.5713 28.5803 38.9768ZM38.8397 23.3131L46.8828 31.3562C47.2883 31.7617 47.2883 32.4235 46.8828 32.8291C46.4772 33.2346 45.8154 33.2346 45.4099 32.8291L37.3668 24.786C36.9613 24.3805 36.9613 23.7187 37.3668 23.3131C37.7724 22.9076 38.4342 22.9076 38.8397 23.3131ZM30.1912 26.7517L38.2342 34.7948C38.6397 35.2003 38.6397 35.8621 38.2342 36.2676C37.8287 36.6732 37.1669 36.6732 36.7613 36.2676L28.7183 28.2246C28.3128 27.819 28.3128 27.1572 28.7183 26.7517C29.1238 26.3462 29.7856 26.3462 30.1912 26.7517ZM59.3556 24.7836C60.5075 24.7836 61.4396 25.7158 61.4396 26.8676C61.4396 28.0194 60.5075 28.9516 59.3556 28.9516C58.2038 28.9516 57.2717 28.0194 57.2717 26.8676C57.2717 25.7158 58.2038 24.7836 59.3556 24.7836ZM69.004 33.0265C69.004 30.7567 67.1622 28.9149 64.8923 28.9149C62.6225 28.9149 60.7807 30.7567 60.7807 33.0265C60.7807 35.2964 62.6225 37.1382 64.8923 37.1382C67.1622 37.1382 69.004 35.2964 69.004 33.0265Z" fill="#7ECA1D"/>
<path fill-rule="evenodd" clip-rule="evenodd" d="M61.4395 26.8701C61.4395 28.0211 60.5065 28.9541 59.3555 28.9541C58.2046 28.9541 57.2715 28.0211 57.2715 26.8701C57.2715 25.7192 58.2046 24.7861 59.3555 24.7861C60.5065 24.7861 61.4395 25.7192 61.4395 26.8701ZM64.8922 37.1379C67.163 37.1379 69.0038 35.2971 69.0038 33.0263C69.0038 30.7555 67.163 28.9146 64.8922 28.9146C62.6214 28.9146 60.7805 30.7555 60.7805 33.0263C60.7805 35.2971 62.6214 37.1379 64.8922 37.1379ZM65.8217 45.1133C59.0797 43.832 46.5223 52.1003 50.9634 59.9716C58.6798 63.3989 66.2469 51.9314 65.8217 45.1133Z" fill="#E6F2D6"/>
<path d="M17.5016 75.223C26.0047 75.223 32.8978 68.3299 32.8978 59.8268C32.8978 51.3238 26.0047 44.4307 17.5016 44.4307C8.99856 44.4307 2.10547 51.3238 2.10547 59.8268C2.10547 68.3299 8.99856 75.223 17.5016 75.223Z" fill="#7ECA1D"/>
<path d="M17.5016 73.139C24.8537 73.139 30.8138 67.1789 30.8138 59.8268C30.8138 52.4747 24.8537 46.5146 17.5016 46.5146C10.1495 46.5146 4.18945 52.4747 4.18945 59.8268C4.18945 67.1789 10.1495 73.139 17.5016 73.139Z" fill="#E6F2D6"/>
<path d="M14.1982 64.8536H20.9007V62.6851H17.5917L19.2251 61.0377C20.1263 60.1365 20.7599 59.1227 20.7599 57.9399C20.7599 55.9544 19.1828 54.7998 17.4227 54.7998C16.0569 54.7998 14.7333 55.4898 14.0996 56.9542L16.0005 58.0666C16.2681 57.447 16.7609 56.9964 17.4509 56.9964C18.1127 56.9964 18.507 57.4189 18.507 58.0384C18.507 58.6157 18.0845 59.1931 17.5072 59.7845L14.1982 63.2202V64.8536Z" fill="#7ECA1D"/>
</svg>
