<svg width="80" height="80" viewBox="0 0 80 80" fill="none" xmlns="http://www.w3.org/2000/svg">
<path fill-rule="evenodd" clip-rule="evenodd" d="M40.1106 50.7443C38.736 50.7443 37.3897 50.617 36.083 50.3736C36.7115 50.4918 37.3509 50.5824 37.9947 50.6432V60.713H42.229V50.6461C42.9454 50.5758 43.6507 50.4719 44.3447 50.337V60.713H45.0976C50.8126 60.713 55.7548 64.8124 56.8309 70.4121L57.3142 72.9296H22.901L23.3842 70.4121C24.4604 64.8095 29.4026 60.713 35.1176 60.713H35.1204H35.879V50.3346C31.6451 49.5041 27.8356 47.453 24.8356 44.5658C20.1186 44.4364 15.5141 43.2365 12.1484 39.6967C9.1729 36.5638 7.84672 32.3043 7.16115 28.1291C6.34353 23.1363 6.31543 19.9234 6.31543 14.8687V12.753H18.0516V14.8687H8.43394C8.43394 30.9201 9.33019 40.8368 22.7904 42.3096C19.8255 38.5526 18.0517 33.8171 18.0517 28.6853V6.31592H62.1696V12.753H73.8831V14.8687C73.8831 19.9234 73.855 23.1363 73.0374 28.1291C72.3546 32.3043 71.0285 36.5638 68.0502 39.6967C64.6909 43.2329 60.0961 44.433 55.3858 44.5657C51.4152 48.3872 46.0262 50.7443 40.1106 50.7443ZM62.1696 28.6853V14.8687H71.7674C71.7674 30.9135 70.8713 40.8243 57.4333 42.3064C60.3969 38.5496 62.1696 33.815 62.1696 28.6853ZM40.1106 48.6286C51.0797 48.6286 60.0511 39.6544 60.0511 28.6882V8.43443H20.1674V28.6882C20.1674 39.6572 29.1416 48.6286 40.1078 48.6286H40.1106ZM45.0976 62.8287H35.1204H35.1176C30.3411 62.8287 26.3344 66.279 25.4634 70.8111H54.7518C53.8808 66.279 49.8741 62.8287 45.0976 62.8287Z" fill="#7ECA1D"/>
<path fill-rule="evenodd" clip-rule="evenodd" d="M40.5572 15.6982L43.5916 21.6351C43.6647 21.7784 43.7883 21.8711 43.9457 21.902L50.2844 23.113C50.467 23.1495 50.6075 23.2703 50.6665 23.4502C50.7255 23.6272 50.6861 23.8098 50.5625 23.9503L46.081 28.8841C45.9771 28.9965 45.9349 29.137 45.9546 29.2887L46.8228 36.0264C46.8481 36.2175 46.7694 36.3917 46.6149 36.504C46.4575 36.6136 46.2665 36.6277 46.0979 36.5406L40.3408 33.6213C40.1919 33.5454 40.0346 33.5454 39.8856 33.6213L34.1286 36.5434C33.9572 36.6305 33.7661 36.6164 33.6116 36.504C33.4542 36.3945 33.3784 36.2175 33.4037 36.0264L34.2719 29.2887C34.2915 29.137 34.2466 28.9993 34.1454 28.8841L29.664 23.9503C29.5375 23.8126 29.4982 23.63 29.56 23.4502C29.619 23.2732 29.7595 23.1495 29.9421 23.113L36.2808 21.902C36.4381 21.8711 36.5618 21.7784 36.6348 21.6351L39.6693 15.6982C39.7564 15.524 39.925 15.4229 40.1189 15.4229C40.3127 15.4229 40.4785 15.524 40.5684 15.6982H40.5572ZM40.1076 19.4744L38.5117 22.5988C38.1408 23.3237 37.4693 23.8295 36.6685 23.9812L33.1536 24.6527L35.702 27.4596C36.219 28.03 36.4606 28.7942 36.3623 29.5585L35.8846 33.2729L38.9219 31.7304C39.6721 31.3511 40.5431 31.3511 41.2933 31.7304L44.3306 33.2701L43.8529 29.5557C43.7546 28.7942 43.9962 28.0272 44.5132 27.4568L47.0616 24.6499L43.5467 23.9784C42.7459 23.8267 42.0744 23.3209 41.7035 22.596L40.1076 19.4716V19.4744Z" fill="#7ECA1D"/>
<path fill-rule="evenodd" clip-rule="evenodd" d="M40.1103 19.4716L38.5144 22.5959C38.1435 23.3209 37.472 23.8266 36.6712 23.9783L33.1562 24.6498L35.7046 27.4567C36.2216 28.0271 36.4633 28.7913 36.3649 29.5556L35.8873 33.27L38.9246 31.7275C39.6748 31.3482 40.5458 31.3482 41.296 31.7275L44.3332 33.2672L43.8556 29.5528C43.7573 28.7913 43.9989 28.0243 44.5159 27.4539L47.0643 24.647L43.5493 23.9755C42.7486 23.8238 42.0771 23.318 41.7062 22.5931L40.1103 19.4688V19.4716Z" fill="#E6F2D6"/>
<path fill-rule="evenodd" clip-rule="evenodd" d="M23.1174 44.4243C31.7545 44.4243 38.7534 51.4261 38.7534 60.0603C38.7534 68.6973 31.7517 75.6963 23.1174 75.6963C14.4804 75.6963 7.48145 68.6945 7.48145 60.0603C7.48145 51.4233 14.4832 44.4243 23.1174 44.4243Z" fill="#7ECA1D"/>
<path fill-rule="evenodd" clip-rule="evenodd" d="M23.1179 46.543C30.5833 46.543 36.6382 52.5951 36.6382 60.0633C36.6382 67.5286 30.5861 73.5835 23.1179 73.5835C15.6526 73.5835 9.59766 67.5314 9.59766 60.0633C9.59766 52.5979 15.6498 46.543 23.1179 46.543Z" fill="#E6F2D6"/>
<path d="M24.649 59.2176L26.3798 57.0148V55.1548H19.9455V57.2986H23.6066L21.7915 59.5997L22.6625 60.9006H23.1346C24.0786 60.9006 24.4916 61.4008 24.4916 62.0161C24.4916 62.6314 24.0758 63.1315 23.1346 63.1315C22.2636 63.1315 21.8337 62.7297 21.6033 62.0723L19.6309 63.2158C20.2462 64.6881 21.6173 65.3596 23.1346 65.3596C25.0648 65.3596 26.7816 64.2161 26.7816 62.0133C26.7816 60.6253 25.8796 59.6391 24.6518 59.2092L24.649 59.2176Z" fill="#7ECA1D"/>
</svg>
