<svg width="80" height="80" viewBox="0 0 80 80" fill="none" xmlns="http://www.w3.org/2000/svg">
<path d="M69.6698 29.1519H17.8135V46.3004H69.6698V29.1519Z" fill="#E6F2D6"/>
<path fill-rule="evenodd" clip-rule="evenodd" d="M27.8318 6.31592H59.6457C66.3235 6.31592 71.7871 11.7795 71.7871 18.4573V57.2319C71.7871 63.9097 66.3235 69.3733 59.6457 69.3733H27.8318C21.154 69.3733 15.6904 63.9097 15.6904 57.2319V47.3591V18.4573C15.6904 11.7795 21.154 6.31592 27.8318 6.31592ZM17.8174 27.0292H69.6692V18.4527C69.6692 12.9434 65.1595 8.43381 59.6503 8.43381H27.8363C22.3271 8.43381 17.8174 12.9434 17.8174 18.4527V27.0292ZM69.6692 29.1517H17.8129V46.3002H69.6692V29.1517ZM69.6646 48.4181H17.8129V57.2274C17.8129 62.7366 22.3225 67.2463 27.8318 67.2463H59.6457C65.155 67.2463 69.6646 62.7366 69.6646 57.2274V48.4181ZM26.6495 17.3298H60.8279C61.4121 17.3298 61.8868 17.8091 61.8868 18.3888C61.8868 18.973 61.4075 19.4477 60.8279 19.4477H26.6495C26.0653 19.4477 25.5906 18.9684 25.5906 18.3888C25.5906 17.8045 26.0699 17.3298 26.6495 17.3298ZM51.3294 35.8979C50.9186 35.4871 50.2431 35.4871 49.8323 35.8979H49.8277C49.4169 36.3087 49.4169 36.9842 49.8277 37.395L53.7622 41.3295L53.7805 41.3478L53.7988 41.366L53.817 41.3843L53.8398 41.4025L53.8627 41.4208L53.8855 41.4391L53.9083 41.4528L53.9311 41.4664L53.954 41.4801L53.9768 41.4938L53.9996 41.5075L54.0224 41.5212L54.0452 41.5349L54.0681 41.544L54.0909 41.5532L54.1137 41.5623L54.1365 41.5714L54.1594 41.5806L54.1822 41.5897L54.205 41.5988L54.2278 41.6079L54.2506 41.6125L54.2735 41.6171L54.2963 41.6216L54.3191 41.6262L54.3465 41.6308L54.3739 41.6353L54.4013 41.6399H54.4286H54.456H54.4834H54.5108H54.5382H54.5656H54.593H54.6204L54.6477 41.6353L54.6751 41.6308L54.7025 41.6262L54.7299 41.6216L54.7527 41.6171L54.7755 41.6125L54.7984 41.6079L54.8212 41.5988L54.844 41.5897L54.8668 41.5806L54.8897 41.5714L54.9125 41.5623L54.9353 41.5532L54.9581 41.544L54.9809 41.5349L55.0038 41.5212L55.0266 41.5075L55.0494 41.4938L55.0722 41.4801L55.0951 41.4664L55.1179 41.4528L55.1407 41.4391L55.1635 41.4208L55.1863 41.4025L55.2092 41.3843L55.2274 41.366L55.2457 41.3478L55.2639 41.3295L61.5765 35.0169C61.9873 34.6061 61.9873 33.9306 61.5765 33.5198C61.1657 33.109 60.4902 33.109 60.0794 33.5198L54.5154 39.0838L51.3294 35.8979ZM26.6495 56.9443H60.8279C61.4121 56.9443 61.8868 57.4236 61.8868 58.0032C61.8868 58.5875 61.4075 59.0622 60.8279 59.0622H26.6495C26.0653 59.0622 25.5906 58.5829 25.5906 58.0032C25.5906 57.419 26.0699 56.9443 26.6495 56.9443ZM42.6798 36.8929H26.6495C26.0699 36.8929 25.5906 37.3676 25.5906 37.9519C25.5906 38.5316 26.0653 39.0108 26.6495 39.0108H42.6798C43.2594 39.0108 43.7387 38.5361 43.7387 37.9519C43.7387 37.3722 43.264 36.8929 42.6798 36.8929Z" fill="#7ECA1D"/>
<path d="M21.9759 73.6843C30.625 73.6843 37.6364 66.6728 37.6364 58.0238C37.6364 49.3747 30.625 42.3633 21.9759 42.3633C13.3269 42.3633 6.31543 49.3747 6.31543 58.0238C6.31543 66.6728 13.3269 73.6843 21.9759 73.6843Z" fill="#7ECA1D"/>
<path d="M21.9765 71.5619C29.4534 71.5619 35.5146 65.5007 35.5146 58.0239C35.5146 50.547 29.4534 44.4858 21.9765 44.4858C14.4997 44.4858 8.43848 50.547 8.43848 58.0239C8.43848 65.5007 14.4997 71.5619 21.9765 71.5619Z" fill="#E6F2D6"/>
<path d="M21.437 53.0073L18.8125 53.9522L19.3739 55.9149L21.1495 55.431V63.0353H23.4408V53.0073H21.437Z" fill="#7ECA1D"/>
</svg>
