<svg width="59" height="69" viewBox="0 0 59 69" fill="none" xmlns="http://www.w3.org/2000/svg">
<path fill-rule="evenodd" clip-rule="evenodd" d="M10.2926 18.6876C16.6346 13.4288 22.0593 8.30792 26.8713 3.03339L29.0575 0.637207L32.8918 5.70327C36.3771 10.3078 39.0103 15.0278 40.7487 19.7591L41.0756 20.6488L41.9816 20.3699C46.0285 19.1239 49.9169 17.7569 53.5657 16.2963L56.5769 15.0908L57.8234 21.3209C60.6583 35.4914 58.3139 47.8652 51.4212 56.2735C48.1159 60.3054 43.7798 63.4395 38.5113 65.5798C32.9501 67.8391 26.3037 68.9997 18.7382 68.9997H10.5981L2.85539 52.9893C0.02707 47.1408 -0.717573 40.7126 0.699415 34.3877C2.07384 28.2532 5.48262 22.676 10.2926 18.6876ZM31.173 7.00427L28.9052 4.00812L28.0945 4.88972C23.3146 10.088 17.9378 15.1488 11.6687 20.3472C7.22009 24.0358 4.07346 29.1882 2.80303 34.8591C1.49421 40.7009 2.18421 46.65 4.79609 52.0508L10.1962 63.2172V50.8137C10.1962 44.317 12.3243 38.2061 16.3537 33.1288C20.2618 28.2047 25.7587 24.6678 31.8253 23.1713C33.9157 22.6556 35.9708 22.1135 37.9607 21.5534L39.0081 21.2587L38.6262 20.2398C36.9524 15.7741 34.4486 11.332 31.173 7.00427ZM52.6249 20.832L53.7502 18.5643L51.379 19.4508C47.968 20.726 44.3828 21.9219 40.6768 23.015L40.6751 23.0155L40.6232 23.0306L40.621 23.0312L39.6576 23.3145L38.7286 23.5769C36.6595 24.1614 34.5196 24.7271 32.3417 25.2643C26.7308 26.6484 21.6549 29.9169 18.0424 34.4689C14.3207 39.1582 12.352 44.8143 12.352 50.8135V65.9238L13.9363 64.7834C17.0617 62.5336 22.1479 58.6272 27.8035 53.3084C33.2257 48.209 38.1082 42.8231 42.3141 37.2984C46.4064 31.9228 49.8606 26.4028 52.6249 20.832ZM55.9515 23.0239L55.4285 20.0974L54.0765 22.7451C51.3303 28.1229 47.955 33.4531 43.9923 38.6529C39.7088 44.2736 34.7349 49.7564 29.2079 54.9472C24.5628 59.3095 20.3467 62.7027 17.2303 65.0446L14.8357 66.844H18.7382C25.9594 66.844 32.346 65.7576 37.6999 63.5827C42.5997 61.5922 46.6632 58.677 49.7538 54.9069C56.1245 47.1356 58.2366 35.8107 55.9515 23.0239Z" fill="#7ECA1D"/>
</svg>
