<svg width="76" height="76" viewBox="0 0 76 76" fill="none" xmlns="http://www.w3.org/2000/svg">
<path fill-rule="evenodd" clip-rule="evenodd" d="M37.8256 0C58.7165 0 75.6512 16.9348 75.6512 37.8256C75.6512 58.7165 58.7165 75.6512 37.8256 75.6512C16.9348 75.6512 0 58.7165 0 37.8256C0 16.9348 16.9348 0 37.8256 0ZM37.8256 2.24502C57.4756 2.24502 73.4062 18.1756 73.4062 37.8256C73.4062 57.4756 57.4756 73.4062 37.8256 73.4062C18.1756 73.4062 2.24502 57.4756 2.24502 37.8256C2.24502 18.1756 18.1756 2.24502 37.8256 2.24502Z" fill="#7ECA1D"/>
<path d="M20.4443 30.0113C20.4443 32.4621 21.3841 34.77 23.0889 36.5044C23.3401 36.7607 23.6701 36.8889 24.0002 36.8889C24.3297 36.8889 24.6597 36.7601 24.9109 36.5044C25.415 35.9918 25.415 35.1621 24.9109 34.6495C23.6933 33.4099 23.0222 31.7617 23.0222 30.0113C23.0222 28.2603 23.6933 26.612 24.9109 25.3724C26.6163 23.638 27.5554 21.3301 27.5554 18.8781C27.5554 16.4267 26.6163 14.1194 24.9109 12.3849C24.4074 11.8717 23.593 11.8717 23.0889 12.3849C22.5848 12.8975 22.5848 13.7266 23.0889 14.2398C24.307 15.4794 24.9782 17.1277 24.9782 18.8781C24.9782 20.6291 24.307 22.2773 23.0889 23.5169C21.3823 25.2514 20.4443 27.5593 20.4443 30.0113Z" fill="#7ECA1D"/>
<path d="M29.8887 30.0113C29.8887 32.4621 30.8278 34.77 32.5326 36.5044C32.7844 36.7607 33.1139 36.8889 33.4439 36.8889C33.774 36.8889 34.1035 36.7601 34.3552 36.5044C34.8593 35.9918 34.8593 35.1621 34.3552 34.6495C33.1371 33.4099 32.4659 31.7617 32.4659 30.0113C32.4659 28.2603 33.1371 26.612 34.3552 25.3724C36.0601 23.638 36.9998 21.3301 36.9998 18.8781C36.9998 16.4267 36.0601 14.1194 34.3552 12.3849C33.8511 11.8717 33.0367 11.8717 32.5332 12.3849C32.0291 12.8975 32.0291 13.7266 32.5332 14.2398C33.7508 15.4794 34.4219 17.1277 34.4219 18.8781C34.4219 20.6291 33.7508 22.2773 32.5332 23.5169C30.8278 25.2514 29.8887 27.5593 29.8887 30.0113Z" fill="#7ECA1D"/>
<path d="M50.3596 14.8939C50.1479 14.5907 49.6278 14.5907 49.4175 14.8939C49.1468 15.286 42.7773 24.5109 42.7773 28.1674C42.7773 31.9952 45.9689 35.1109 49.8884 35.1109C53.8084 35.1109 56.9996 31.995 56.9996 28.1674C57 24.5109 50.6301 15.2851 50.3596 14.8939Z" fill="#E6F2D6"/>
<path d="M55.5996 28.1672V28.1674C55.5996 31.1905 53.0669 33.7109 49.8884 33.7109C46.7104 33.7109 44.1773 31.1906 44.1773 28.1674C44.1773 27.5648 44.4666 26.5327 45.061 25.1635C45.6324 23.8474 46.4079 22.3908 47.2079 21.0073C48.2158 19.2642 49.2385 17.6784 49.8886 16.6982C50.5386 17.6781 51.5613 19.2638 52.5692 21.0069C53.3692 22.3904 54.1447 23.8471 54.7161 25.1633C55.3105 26.5326 55.5996 27.5647 55.5996 28.1672Z" stroke="#7ECA1D" stroke-width="2.8"/>
<path fill-rule="evenodd" clip-rule="evenodd" d="M62.9431 44.5395H75.0167C74.8578 45.3969 74.67 46.2441 74.4544 47.0802H61.615L60.5614 48.8161C60.5591 48.8212 60.5562 48.8264 60.5539 48.8315C60.4125 49.0653 60.295 49.3151 60.1967 49.5757L60.1927 49.5868L60.1891 49.5971L60.1853 49.6082L60.1816 49.6186H73.7031C73.415 50.4795 73.0967 51.3266 72.7495 52.1586H59.8453C59.7074 56.3809 56.193 59.7778 51.8817 59.7778H21.1028C16.7048 59.7778 13.1258 56.2449 13.1258 51.9032V51.3156C13.1258 50.4342 12.8838 49.5694 12.4254 48.8126L10.3171 45.3432C9.90349 44.6613 9.8936 43.8079 10.2927 43.1163C10.6906 42.4281 11.4376 42 12.2427 42H60.7447C61.5498 42 62.2968 42.4275 62.6953 43.1163C62.949 43.5541 63.0182 44.0554 62.9431 44.5395ZM51.884 57.2377H21.104C17.9872 57.2377 16.3788 54.698 15.9642 53.4281C15.8397 53.0217 15.7594 52.5988 15.7379 52.1581H27.1694C27.8826 52.1581 28.462 51.5905 28.462 50.8886C28.462 50.1861 27.8826 49.6186 27.1694 49.6186H15.4976C15.3202 48.8807 15.0439 48.1685 14.6454 47.5117L12.8402 44.5389H60.1478L58.3426 47.5117C58.185 47.7724 58.0465 48.045 57.9226 48.3245C57.8585 48.4679 57.8062 48.616 57.7539 48.7639L57.73 48.8315C57.7172 48.8678 57.7039 48.9037 57.6905 48.9395C57.6657 49.0061 57.6409 49.0725 57.6201 49.1413C57.5485 49.3682 57.4944 49.5991 57.4467 49.8318L57.4365 49.879C57.4291 49.9123 57.4218 49.9454 57.4159 49.9792C57.3676 50.233 57.3356 50.4885 57.3158 50.7474C57.3153 50.7563 57.3139 50.7649 57.3126 50.7734C57.3113 50.782 57.31 50.7906 57.3094 50.7994L57.2513 52.1569C57.1122 54.9788 54.7689 57.2377 51.884 57.2377Z" fill="#7ECA1D"/>
<path fill-rule="evenodd" clip-rule="evenodd" d="M51.8837 57.2378H21.1037C17.9869 57.2378 16.3785 54.6981 15.9639 53.4282C15.8394 53.0218 15.7591 52.5989 15.7376 52.1582H27.169C27.8823 52.1582 28.4617 51.5906 28.4617 50.8887C28.4617 50.1862 27.8823 49.6187 27.169 49.6187H15.4973C15.3199 48.8808 15.0435 48.1686 14.645 47.5118L12.8398 44.5391H60.1475L58.3423 47.5118C58.1846 47.7725 58.0462 48.0451 57.9223 48.3246C57.8581 48.468 57.8059 48.6161 57.7536 48.764L57.7297 48.8316C57.7169 48.868 57.7035 48.9038 57.6902 48.9396C57.6653 49.0062 57.6406 49.0726 57.6197 49.1414C57.5482 49.3683 57.4941 49.5992 57.4464 49.8319L57.4361 49.8791C57.4288 49.9124 57.4215 49.9455 57.4156 49.9793C57.3673 50.2331 57.3353 50.4886 57.3155 50.7475C57.3149 50.7564 57.3136 50.765 57.3123 50.7735C57.311 50.7821 57.3097 50.7907 57.3091 50.7996L57.2509 52.157C57.1119 54.9789 54.7686 57.2378 51.8837 57.2378Z" fill="#E6F2D6"/>
<rect x="10.1699" y="63.8535" width="75" height="2.3" transform="rotate(-45 10.1699 63.8535)" fill="#7ECA1D"/>
</svg>
