<svg width="50" height="50" viewBox="0 0 50 50" fill="none" xmlns="http://www.w3.org/2000/svg">
<path d="M25.0001 49.8748C38.769 49.8748 49.9309 38.7129 49.9309 24.944C49.9309 11.1751 38.769 0.0131836 25.0001 0.0131836C11.2312 0.0131836 0.0693359 11.1751 0.0693359 24.944C0.0693359 38.7129 11.2312 49.8748 25.0001 49.8748Z" fill="#CDD6E0"/>
<path d="M25.0002 42.915C34.9253 42.915 42.9711 34.8691 42.9711 24.9441C42.9711 15.019 34.9253 6.97314 25.0002 6.97314C15.0752 6.97314 7.0293 15.019 7.0293 24.9441C7.0293 34.8691 15.0752 42.915 25.0002 42.915Z" fill="#ACB3BA"/>
<path d="M25.7266 0.0133765C25.2073 0.0133765 24.8956 0.532736 24.8956 0.948282V10.4012C24.8956 10.9206 24.4801 11.3362 23.9607 11.3362C23.4414 11.3362 23.0258 10.9206 23.0258 10.4012V0.948282C23.0258 0.428922 22.7142 0.0133765 22.1948 0.0133765C21.6755 -0.0905343 21.156 0.428922 21.156 0.948282V10.4012C21.156 10.9206 20.7405 11.3362 20.2211 11.3362C19.7017 11.3362 19.2862 10.9206 19.2862 10.4012V0.948282C19.2862 0.428922 18.9746 0.0133765 18.4552 0.0133765C17.9358 -0.0905343 17.4164 0.428922 17.4164 0.948282V10.4012C17.4164 10.9206 17.0008 11.3362 16.4815 11.3362C15.9621 11.3362 15.5466 10.9206 15.5466 10.4012V0.948282C15.5466 0.428922 15.2349 0.0133765 14.7156 0.0133765C14.1962 -0.0905343 13.6768 0.428922 13.6768 0.948282V11.44C13.6768 13.2059 14.4039 14.764 15.5466 16.0106C17.4164 17.8804 18.4552 20.4774 18.2474 23.0743L16.1698 45.512C16.1698 45.7197 16.1698 46.0314 16.1698 46.2392C16.3776 48.5245 18.559 50.1865 20.8444 49.7711C22.9219 49.3555 24.2723 47.3819 24.0646 45.3043L22.0909 22.9705C21.8832 20.2697 22.9219 17.7766 24.7917 15.9068C25.9343 14.7641 26.6615 13.102 26.6615 11.3362V0.948282C26.6615 0.428922 26.246 0.0133765 25.7266 0.0133765Z" fill="#F2F2F2"/>
<path d="M22.1945 23.3857H18.2472L16.2734 45.5118C16.2734 45.7196 16.2734 46.0312 16.2734 46.239C16.4812 48.5244 18.6626 50.1864 20.948 49.7709C23.0255 49.3554 24.3759 47.3817 24.1682 45.3041L22.1945 23.3857Z" fill="#40596B"/>
<path d="M34.6606 0.0131836C34.6606 0.0131836 30.1938 1.77908 28.324 15.1794C27.5968 20.6849 28.7396 26.0866 30.8171 31.1767C31.0248 31.6961 31.1287 32.3193 31.1287 32.9426L29.8822 46.3429C29.8822 46.5506 29.8822 46.7584 29.8822 46.9662C30.0899 48.7321 31.6481 50.0825 33.5179 49.8748C35.18 49.6671 36.3226 47.9011 36.2187 46.2391L34.6606 0.0131836Z" fill="#F2F2F2"/>
<path d="M31.1294 32.8389C31.1294 32.9428 31.1294 32.9428 31.1294 33.0466L29.8828 46.4469C29.8828 46.6546 29.8828 46.8624 29.8828 47.0702C30.0905 48.8361 31.6487 50.1865 33.5185 49.9788C35.1806 49.771 36.3232 48.0051 36.2193 46.3431L35.8038 32.9428H31.1293V32.8389H31.1294Z" fill="#FF7058"/>
</svg>
