<svg width="110" height="110" viewBox="0 0 110 110" fill="none" xmlns="http://www.w3.org/2000/svg">
<path d="M54.204 0.00576379C23.8965 0.441362 -0.429836 25.4715 0.00575988 55.7958C0.441356 86.1201 25.4714 110.43 55.7956 109.994C86.1198 109.559 110.446 84.5285 109.994 54.2042C109.541 23.8799 84.5282 -0.429834 54.204 0.00576379ZM55.6113 97.5462C47.1842 97.6635 38.9749 95.3012 31.9048 90.7107L30.1122 89.5379L38.1874 81.228C38.9916 79.3348 40.1811 77.4752 41.756 75.582C41.9235 75.381 42.0575 75.2302 42.2083 75.0626C42.5266 74.6941 42.912 74.2752 43.2973 73.8731C43.7162 73.4375 44.135 73.0187 44.5538 72.6166C43.6324 71.6449 42.7444 70.6396 41.9235 69.5506C40.4492 67.5737 39.2597 65.4125 38.3717 63.1339L21.1824 80.8762L19.9762 79.1171C15.1846 72.181 12.5878 64.0554 12.4705 55.6283C12.1187 32.173 30.9331 12.8056 54.405 12.4706C62.8321 12.3533 71.0415 14.7156 78.1115 19.3061L79.9042 20.4789L71.8456 28.772C71.0247 30.6819 69.8352 32.5416 68.2603 34.4348C68.076 34.6526 67.8918 34.8704 67.7075 35.0714C67.4226 35.4065 67.0708 35.7918 66.7022 36.1604C66.2834 36.596 65.8646 36.9813 65.4457 37.3834C66.3839 38.3551 67.2719 39.3771 68.076 40.4661C69.5504 42.4431 70.7399 44.6043 71.6278 46.8828L88.8339 29.1573L90.0401 30.9165C94.8317 37.8525 97.4285 45.9781 97.5458 54.422C97.8809 77.8438 79.0665 97.2111 55.6113 97.5462Z" fill="#7ECA1D"/>
<path d="M67.4229 26.3595C65.8146 30.3804 62.3132 33.6306 58.9794 36.4453C58.0412 35.7081 56.2319 34.5353 55.9639 34.3845C60.3029 31.5364 63.9215 29.1574 66.2334 25.7396C67.2051 24.2988 67.9255 22.6569 68.3443 20.8643C68.4616 22.6737 68.16 24.5836 67.4229 26.3595Z" fill="#7ECA1D"/>
<path d="M69.332 88.7509C68.8797 86.9583 68.109 85.3332 67.0871 83.9258C64.5742 80.4411 60.7042 78.1458 56.583 75.5825C57.2029 75.1971 59.096 73.8233 59.5148 73.438C62.9156 76.1186 66.5343 79.3353 68.2431 83.2725C69.0137 85.0148 69.399 86.9248 69.332 88.7509Z" fill="#7ECA1D"/>
<path d="M54.1874 69.1152C53.4168 69.8189 52.8472 70.2545 51.0044 71.7958C48.86 70.0534 47.2852 68.3613 45.9617 66.5854C42.075 61.375 40.8018 55.1426 42.8624 49.0609C44.3534 44.772 47.1009 41.2872 50.5353 38.3218C51.1886 38.8411 53.0985 40.3155 53.8021 40.9186C51.0881 43.5154 48.4747 46.9667 47.369 50.552C45.8612 55.4776 46.8831 59.7498 49.6809 63.9718C50.7866 65.6974 52.6461 67.7582 54.1874 69.1152Z" fill="#7ECA1D"/>
<path d="M64.3908 66.3169C59.9846 72.5996 54.8245 74.7943 49.5303 78.6645C45.9618 81.2781 42.7283 84.2602 41.6561 89.1356C41.3545 84.545 43.6833 80.6749 46.9 77.3242C51.5743 72.4488 56.4831 70.0363 60.3029 64.2562C64.3238 58.0741 64.3908 52.0762 60.3532 46.0114C54.7072 37.735 45.2916 34.8366 41.7733 26.6943C41.0027 24.9519 40.6341 23.0587 40.7011 21.2158C41.1535 23.0085 41.9241 24.6336 42.9461 26.0409C48.0895 33.1948 57.4716 34.4848 64.0893 43.381C69.1824 50.2836 69.7017 58.7275 64.3908 66.3169Z" fill="#7ECA1D"/>
</svg>
