<svg width="110" height="110" viewBox="0 0 110 110" fill="none" xmlns="http://www.w3.org/2000/svg">
<path d="M55 0C24.6771 0 0 24.6641 0 55.0084C0 85.3359 24.6771 110 55 110C85.3229 110 110 85.3359 110 55.0084C110 24.6641 85.3229 0 55 0ZM55 97.5674C46.5733 97.5674 38.3978 95.0876 31.3951 90.396L29.6193 89.2064L39.6375 79.1866C37.8785 77.3938 36.7393 75.6009 36.0691 74.3778C34.7624 71.9482 34.0755 69.5522 33.7405 67.4745L20.8239 80.393L19.6345 78.6169C14.9436 71.6131 12.4642 63.4532 12.4642 55.0084C12.4642 31.5506 31.5458 12.4494 55.0168 12.4494C63.4603 12.4494 71.6189 14.9292 78.6217 19.6207L80.3975 20.8104L76.293 24.9155L76.5108 27.7639C76.6616 29.9086 76.5443 32.9581 75.4051 36.3092L76.6281 36.4935L76.8124 39.3252C76.8626 40.2132 76.8794 41.1013 76.8124 41.9893L89.1761 29.6238L90.3655 31.3998C95.0564 38.4204 97.5358 46.5636 97.5358 55.0084C97.5526 78.4661 78.4542 97.5674 55 97.5674Z" fill="#7ECA1D"/>
<path d="M71.0157 36.2755C64.5491 36.0744 58.1829 38.9396 55.1339 44.6868C52.0681 38.8559 45.3502 35.8399 38.6992 36.2923C36.5884 32.1537 36.6219 28.3334 36.7391 26.6914C45.7187 25.3006 54.3298 30.4781 54.8491 39.5931C55.3517 30.5284 63.8789 25.3342 72.9591 26.6914C73.1936 29.9084 72.557 33.2595 71.0157 36.2755Z" fill="#7ECA1D"/>
<path d="M71.301 49.1611C64.8176 48.7087 57.9991 51.6074 54.8663 57.5389C51.9011 51.9258 45.3004 48.7422 38.9678 49.1276C36.8904 44.989 36.9239 41.1855 37.0412 39.5602C45.5684 37.9349 54.615 43.1961 55.1511 52.4619C55.6035 43.3804 64.5328 38.0187 73.2779 39.5602C73.4789 42.861 72.792 46.2121 71.301 49.1611Z" fill="#7ECA1D"/>
<path d="M71.0322 61.9954C64.9676 61.61 58.2329 64.5758 55.1504 70.4067C52.0343 64.492 45.4839 61.7441 38.6989 62.0122C36.5881 57.8736 36.6383 54.0701 36.7556 52.428C45.7184 51.0206 54.43 56.265 54.8656 65.313C55.2844 57.3039 62.6557 50.9535 72.9755 52.428C73.076 54.0701 73.1263 57.8736 71.0322 61.9954Z" fill="#7ECA1D"/>
<path d="M55.1674 84.8337H55.1507C55.1339 84.8337 55.1339 84.8337 55.1172 84.8337C44.7806 84.8337 36.2701 75.9197 37.0407 65.2967C45.6685 63.6547 54.6313 69.05 55.1507 78.1817C55.5695 69.938 63.2424 63.8222 73.2774 65.2967C73.914 76.0538 65.6045 84.7499 55.1674 84.8337Z" fill="#7ECA1D"/>
</svg>
