<svg width="60" height="60" viewBox="0 0 60 60" fill="none" xmlns="http://www.w3.org/2000/svg">
<g clip-path="url(#clip0)">
<path d="M45 5.45459C44.1737 5.45459 43.3101 5.5639 42.4133 5.73047C39.4099 2.22942 34.964 0 30.0001 0C25.0361 0 20.5901 2.22942 17.5868 5.73034C16.6899 5.5639 15.8263 5.45446 15.0001 5.45446C6.72891 5.45459 0 12.1835 0 20.4546C0 26.1221 3.19602 31.2744 8.21378 33.822L8.18719 54.4296C8.18591 55.917 8.76376 57.3153 9.81448 58.3673C10.8665 59.4208 12.2634 60 13.751 60H46.2545C49.3227 60 51.8183 57.5044 51.8183 54.4362V33.8019C56.8174 31.2478 60.0001 26.1035 60.0001 20.4546C60 12.1835 53.2711 5.45459 45 5.45459Z" fill="#565762"/>
<path d="M46.2547 57.2726H13.7511C12.9934 57.2726 12.2809 56.977 11.7442 56.4404C11.2088 55.9037 10.9133 55.1913 10.9146 54.4323L10.9216 49.0908H49.0911V54.4362C49.0911 55.9996 47.818 57.2726 46.2547 57.2726Z" fill="#F1F2F6"/>
<path d="M47 49.0908V54.4362C47 55.9996 45.9089 57.2728 44.5688 57.2728H46.2546C47.8179 57.2728 49.0911 55.9997 49.0911 54.4362V49.0908H47Z" fill="#DCDFE8"/>
<path d="M49.935 31.6796C49.863 31.7088 49.7952 31.7435 49.7312 31.7848C49.5594 31.8913 49.4183 32.0325 49.3131 32.1949C49.2066 32.356 49.1346 32.5425 49.1053 32.7422C49.0933 32.8181 49.0894 32.8941 49.0906 32.9713V46.3639H10.9247L10.9422 32.9898C10.9435 32.9153 10.9396 32.8393 10.9289 32.7661C10.8997 32.5596 10.8237 32.3679 10.7132 32.2014C10.6092 32.0456 10.4734 31.9098 10.3083 31.8059C10.2404 31.7633 10.1684 31.726 10.0939 31.6953C5.61818 29.738 2.72705 25.3301 2.72705 20.4549C2.72705 13.6872 8.23227 8.18213 14.9998 8.18213C15.2643 8.18213 15.5435 8.21409 15.8175 8.2357C14.4378 10.6336 13.6361 13.4043 13.6361 16.364C13.6361 17.1177 14.246 17.7276 14.9998 17.7276C15.7535 17.7276 16.3635 17.1177 16.3635 16.364C16.3635 8.84524 22.4812 2.72754 29.9999 2.72754C37.5186 2.72754 43.6362 8.84537 43.6362 16.364C43.6362 17.1177 44.2461 17.7276 44.9998 17.7276C45.7536 17.7276 46.3635 17.1177 46.3635 16.364C46.3635 13.4043 45.5618 10.6336 44.1822 8.2357C44.4561 8.21409 44.7353 8.18213 44.9998 8.18213C51.7675 8.18213 57.2726 13.6873 57.2726 20.4549C57.2726 25.3128 54.3935 29.7154 49.935 31.6796Z" fill="#F1F2F6"/>
<path d="M45.0003 8.18164C44.7358 8.18164 44.4566 8.2136 44.1826 8.23521C44.1926 8.25272 44.1995 8.27202 44.2095 8.28941C49.7473 8.83989 54.1197 14.0521 54.1197 20.4542C54.1197 25.3122 51.5735 29.7148 47.6306 31.6789C47.5671 31.7082 47.507 31.7429 47.4504 31.7842C47.2985 31.8906 47.1737 32.0319 47.0806 32.1943C46.9864 32.3554 46.9229 32.5419 46.8968 32.7416C46.8862 32.8175 46.8826 32.8934 46.8838 32.9706V46.3633H49.0912V32.9706C49.0899 32.8934 49.0939 32.8175 49.1059 32.7416C49.1352 32.5417 49.2072 32.3554 49.3136 32.1943C49.4189 32.0318 49.56 31.8906 49.7318 31.7842C49.7957 31.7429 49.8636 31.7082 49.9356 31.6789C54.3939 29.7149 57.273 25.3123 57.273 20.4544C57.273 13.6869 51.7679 8.18164 45.0003 8.18164Z" fill="#DCDFE8"/>
<path d="M16.3641 26.6361C16.3641 25.8824 15.7541 25.2725 15.0004 25.2725C14.2466 25.2725 13.6367 25.8824 13.6367 26.6361C13.6367 30.217 17.5865 35.1336 18.0366 35.6836C18.307 36.0112 18.6985 36.1816 19.0926 36.1816C19.3962 36.1816 19.7025 36.0804 19.9568 35.8726C20.5387 35.3945 20.6226 34.5357 20.1459 33.9523C18.6839 32.1706 16.3641 28.6097 16.3641 26.6361Z" fill="#565762"/>
<path d="M45.0005 25.2725C44.2467 25.2725 43.6368 25.8824 43.6368 26.6361C43.6368 28.603 41.317 32.1679 39.8549 33.9538C39.3782 34.5357 39.4633 35.3946 40.0454 35.8726C40.2984 36.0804 40.6047 36.1816 40.9096 36.1816C41.3037 36.1816 41.6939 36.0112 41.9643 35.6836C42.4144 35.1336 46.3642 30.2171 46.3642 26.6361C46.3642 25.8824 45.7542 25.2725 45.0005 25.2725Z" fill="#565762"/>
<path d="M30.0004 25.2725C29.2466 25.2725 28.6367 25.8824 28.6367 26.6361V34.818C28.6367 35.5717 29.2466 36.1816 30.0004 36.1816C30.7541 36.1816 31.3641 35.5717 31.3641 34.818V26.6361C31.3639 25.8824 30.7541 25.2725 30.0004 25.2725Z" fill="#565762"/>
</g>
<defs>
<clipPath id="clip0">
<rect width="60" height="60" fill="white"/>
</clipPath>
</defs>
</svg>
