<svg width="41" height="37" viewBox="0 0 41 37" fill="none" xmlns="http://www.w3.org/2000/svg">
<path d="M38.7212 8.66019C34.0582 2.58784 26.6001 6.77248 26.6001 6.77248C25.0458 3.6835 20.2783 -0.0127111 13.9956 0.0136904C9.17592 0.0268912 1.40428 3.11587 0.150368 11.9208C-1.18191 21.3197 6.58973 30.2434 13.5385 33.8472C13.5385 32.1179 13.5385 31.5107 13.5385 31.4975C13.5385 30.0718 13.5385 27.8805 13.5385 24.6199C12.1148 24.1051 11.109 22.917 11.0699 21.5045C11.0699 21.1877 11.0699 20.9105 11.0699 20.6597C11.0699 20.6465 11.0699 20.1976 11.0699 18.904C11.0699 17.7423 11.0699 15.9074 11.0699 13.0956C11.0699 12.7524 11.3441 12.4884 11.6707 12.4884C12.0103 12.4884 12.2715 12.7656 12.2715 13.0956V20.0524C12.2715 20.4485 13.1597 20.5013 13.1597 20.0524V13.0956C13.1597 12.7524 13.434 12.4884 13.7605 12.4884C14.0871 12.4884 14.3614 12.7656 14.3614 13.0956V20.0524C14.3614 20.5013 15.4977 20.5145 15.4977 20.0524V13.0956C15.4977 12.7524 15.772 12.4884 16.0986 12.4884C16.4382 12.4884 16.6994 12.7656 16.6994 13.0956V20.0524C16.6994 20.6465 17.8096 20.6069 17.8096 20.0524V13.0956C17.8096 12.7524 18.0839 12.4884 18.4105 12.4884C18.7501 12.4884 19.0113 12.7656 19.0113 13.0956C19.0113 36.8834 19.0113 -2.16444 19.0113 21.5045C18.9721 22.9038 17.9664 24.1051 16.5557 24.6199C16.5557 26.8904 16.5557 27.6693 16.5557 27.9069C16.5557 27.9729 16.5557 27.9993 16.5557 27.9993C16.5557 28.2897 16.5557 31.0883 16.5557 35.3257C18.8415 36.3554 20.3958 36.8834 20.3958 36.8834C21.6236 36.3554 22.7992 35.8009 23.9486 35.2201C23.9486 29.5042 23.9486 25.8212 23.9486 25.808C23.9486 25.7552 23.9486 25.7024 23.9486 25.6496C22.2898 24.9235 21.1142 22.9962 21.1142 20.1184C21.1142 16.409 23.0604 12.5412 25.4768 12.5412C27.8801 12.5412 29.8394 16.409 29.8394 20.1184C29.8394 22.9962 28.6638 24.9367 27.005 25.6496C27.005 26.468 27.005 26.9696 27.005 27.2865C27.005 27.6165 27.005 27.7353 27.005 27.7221C27.005 28.2765 27.005 30.5866 27.005 33.5304C39.8837 25.9532 43.7761 15.2342 38.7212 8.66019Z" fill="#7ECA1D"/>
<path d="M21.5588 2.73267C22.029 2.73267 22.4992 2.75907 22.9563 2.78547C20.6706 1.17498 17.588 -0.0130918 13.9961 0.000108927C9.17637 0.0265104 1.40472 3.11549 0.150809 11.9204C-0.802687 18.6396 2.89374 25.1079 7.60898 29.5698C5.72811 26.8108 4.61787 23.4579 4.61787 19.854C4.61787 10.3891 12.2067 2.73267 21.5588 2.73267Z" fill="#65A217"/>
<path d="M38.5002 19.854C38.5002 21.0817 38.3695 22.2961 38.1214 23.4446C41.5696 18.0719 41.7656 12.6068 38.7222 8.65976C36.3319 5.54438 33.2102 5.12195 30.7285 5.46517C35.4046 8.50135 38.5002 13.8081 38.5002 19.854Z" fill="#A9D96B"/>
</svg>
