<svg width="110" height="110" viewBox="0 0 110 110" fill="none" xmlns="http://www.w3.org/2000/svg">
<path fill-rule="evenodd" clip-rule="evenodd" d="M54.3764 12.0045C30.6965 12.3449 11.6641 31.925 12.0045 55.6234C12.3449 79.3178 31.9225 98.3359 55.6232 97.9955C79.3234 97.655 98.3485 78.0729 97.9951 54.3832C97.6415 30.6776 78.0711 11.6642 54.3764 12.0045ZM0.00575988 55.7958C-0.429836 25.4715 23.8965 0.441362 54.204 0.00576379C84.5282 -0.429834 109.541 23.8799 109.994 54.2042C110.446 84.5285 86.1198 109.559 55.7956 109.994C25.4714 110.43 0.441356 86.1201 0.00575988 55.7958Z" fill="#7ECA1D"/>
<path d="M65.1849 23C65.1849 23 70.3565 35.5353 48.1921 43.9552C36.1485 48.529 26.8983 60.2522 37.943 78.3617C38.8577 70.2671 42.7798 52.4195 59.6446 48.3468C59.6446 48.3468 43.9479 54.1621 42.5613 80.4859C50.6269 81.6079 69.5433 82.3618 75.1595 66.0974C82.5756 44.6085 65.1849 23 65.1849 23Z" fill="#7ECA1D"/>
</svg>
